<svg xmlns="http://www.w3.org/2000/svg" xmlns:xlink="http://www.w3.org/1999/xlink" version="1.1" x="0px" y="0px" width="100px" height="100px" viewBox="5.0 -10.0 100.0 135.0" enable-background="new 0 0 100 100" xml:space="preserve">
<g id="Captions">
</g>
<g id="Your_Icon">
	<g>
		<path d="M95.625,45.581c0-21.533-14.934-39.578-35.008-44.346c0.843,0.815,1.672,1.646,2.422,2.532    c0.212,0.247,0.438,0.479,0.635,0.736c0.197,0.256,0.395,0.512,0.59,0.765c0.194,0.253,0.388,0.505,0.58,0.755    c0.189,0.252,0.353,0.523,0.527,0.78c0.17,0.26,0.34,0.517,0.508,0.772l0.25,0.38c0.074,0.132,0.147,0.264,0.221,0.396    c0.287,0.525,0.568,1.038,0.842,1.538c0.488,1.001,0.942,1.978,1.285,2.91c0.356,0.923,0.606,1.803,0.787,2.589    c0.104,0.388,0.148,0.77,0.204,1.112c0.063,0.342,0.073,0.666,0.089,0.955c0.058,0.573,0,1.028-0.023,1.333    c-0.028,0.303-0.044,0.464-0.044,0.464s-0.033-0.159-0.095-0.458c-0.029-0.147-0.064-0.329-0.107-0.542    c-0.037-0.212-0.132-0.449-0.203-0.716c-0.079-0.266-0.157-0.558-0.293-0.866c-0.137-0.307-0.229-0.649-0.404-0.994    c-0.314-0.699-0.706-1.467-1.176-2.285c-0.117-0.205-0.236-0.414-0.358-0.626c-0.128-0.208-0.259-0.42-0.392-0.636    c-0.254-0.422-0.562-0.899-0.848-1.343c-0.305-0.441-0.617-0.894-0.938-1.356c-0.305-0.47-0.688-0.905-1.036-1.372    c-0.181-0.229-0.354-0.464-0.542-0.693c-0.194-0.225-0.39-0.451-0.586-0.678c-0.393-0.455-0.781-0.92-1.214-1.358    c-0.83-0.902-1.726-1.776-2.636-2.633c-0.464-0.421-0.928-0.843-1.391-1.262c-0.413-0.342-0.816-0.693-1.221-1.04    C54.086,0.135,52.082,0,50.046,0c-2.117,0-4.2,0.148-6.242,0.427c-0.016,0.014-0.031,0.027-0.047,0.042    c-0.453,0.413-0.904,0.836-1.368,1.248c-0.447,0.435-0.896,0.872-1.346,1.309c-0.881,0.889-1.745,1.792-2.545,2.722    c-0.416,0.453-0.79,0.931-1.166,1.399c-0.188,0.234-0.376,0.467-0.562,0.698c-0.181,0.235-0.347,0.477-0.52,0.712    c-0.332,0.478-0.699,0.926-0.988,1.405c-0.304,0.474-0.602,0.937-0.891,1.388c-0.271,0.453-0.562,0.94-0.801,1.371    c-0.125,0.22-0.249,0.436-0.369,0.648c-0.115,0.217-0.227,0.429-0.337,0.638c-0.441,0.834-0.807,1.615-1.098,2.324    c-0.163,0.351-0.242,0.696-0.369,1.007c-0.125,0.312-0.193,0.607-0.264,0.875c-0.062,0.269-0.147,0.509-0.179,0.722    c-0.034,0.215-0.064,0.397-0.088,0.545c-0.052,0.301-0.079,0.461-0.079,0.461s-0.021-0.161-0.06-0.462    c-0.034-0.303-0.107-0.756-0.069-1.331c0.006-0.289,0.004-0.613,0.056-0.957c0.044-0.344,0.075-0.728,0.166-1.119    c0.153-0.792,0.373-1.681,0.698-2.615c0.311-0.943,0.73-1.935,1.184-2.952c0.257-0.509,0.521-1.031,0.79-1.566    c0.068-0.133,0.137-0.268,0.206-0.403l0.237-0.389c0.159-0.261,0.319-0.524,0.481-0.789c0.166-0.264,0.319-0.539,0.5-0.798    c0.184-0.256,0.368-0.515,0.554-0.774c0.187-0.26,0.374-0.521,0.563-0.785c0.188-0.264,0.406-0.503,0.609-0.757    c0.809-1.024,1.718-1.983,2.637-2.928c0.024-0.022,0.048-0.045,0.071-0.068C19.37,6.041,4.465,24.069,4.465,45.581    c0,1.038,0.048,1.99,0.114,2.904c0.023-0.03,0.047-0.054,0.067-0.082L37.934,75.15h-1.413V100h27.06V75.15h-1.462l33.354-26.7    c0.009,0.015,0.023,0.027,0.035,0.04c0.001-0.022,0.001-0.05,0.001-0.072l0.063-0.05l-0.058-0.072    C95.576,47.435,95.625,46.549,95.625,45.581z M6.147,46.633c3.655-3.852,8.807-6.267,14.536-6.267c2.938,0,5.716,0.663,8.236,1.8    l8.908,29.924L6.147,46.633z M61.973,98.393H38.128V76.758h9.913v3.684h4.019v-3.684h9.913V98.393z M40.574,75.15l0.535-0.158    L31.233,41.82c4.742-4.695,11.223-7.636,18.422-7.636c7.325,0,13.908,3.04,18.671,7.878L58.479,75.15H40.574z M61.676,72.535    l8.961-30.096c2.65-1.3,5.605-2.074,8.759-2.074c5.755,0,10.927,2.432,14.584,6.311L61.676,72.535z"/>
	</g>
	<rect x="39.735" y="95.646" width="12.057" height="1.406"/>
	<polygon points="41.359,94.842 43.972,94.842 43.972,91.441 45.127,91.441 43.896,89.311 42.666,87.178 41.436,89.311    40.204,91.441 41.359,91.441  "/>
	<polygon points="47.79,94.842 50.402,94.842 50.402,91.441 51.557,91.441 50.326,89.311 49.097,87.178 47.865,89.311    46.635,91.441 47.79,91.441  "/>
</g>
<text x="0.0" y="117.5" font-size="5.0" font-weight="bold" font-family="Helvetica Neue, Helvetica, Arial-Unicode, Arial, Sans-serif" fill="#000000">Created by Nicolas Mol&#232;s</text><text x="0.0" y="122.5" font-size="5.0" font-weight="bold" font-family="Helvetica Neue, Helvetica, Arial-Unicode, Arial, Sans-serif" fill="#000000">from the Noun Project</text></svg>